<?xml version="1.0" encoding="utf-8" ?>
<svg baseProfile="full" height="1380.0" version="1.1" width="1530.0" xmlns="http://www.w3.org/2000/svg" xmlns:ev="http://www.w3.org/2001/xml-events" xmlns:xlink="http://www.w3.org/1999/xlink"><defs><marker id="arrow" markerHeight="20" markerWidth="30" orient="auto" refX="8" refY="3"><path d="M0,0 L0,6 L9,3 z" /></marker></defs><g><rect fill="rgb(135,206,235)" height="1380.0" rx="15" ry="15" stroke="black" stroke-width="2" width="1530.0" x="0" y="0" /><text style="font-size:25;font-weight:bold;font-family:Arial" textLength="80" x="725.0" y="40">Elevator</text><text style="font-size:25;font-family:Arial" textLength="110" x="20" y="80">current = 0</text><text style="font-size:25;font-family:Arial" textLength="150" x="20" y="100">destination = 0</text><text style="font-size:25;font-family:Arial" textLength="170" x="20" y="120">doors_open = True</text><text style="font-size:25;font-family:Arial" textLength="0" x="20" y="140" /><g><circle cx="40.0" cy="770.0" r="20" /><text style="font-size:25;font-weight:bold;font-family:Arial" textLength="0" x="40.0" y="790.0" /></g><g><rect fill="rgb(135,206,235)" height="1180.0" rx="15" ry="15" stroke="black" stroke-width="2" width="1430.0" x="80.0" y="180.0" /><text style="font-size:25;font-weight:bold;font-family:Arial" textLength="60" x="765.0" y="220.0">active</text><g><rect fill="rgb(135,206,235)" height="220.0" rx="15" ry="15" stroke="black" stroke-width="2" width="1390.0" x="100.0" y="1120.0" /><text style="font-size:25;font-family:Arial;font-style:oblique" textLength="130" x="665.0" y="1160.0">&lt;&lt;parallel&gt;&gt;</text><text style="font-size:25;font-weight:bold;font-family:Arial" textLength="130" x="805.0" y="1160.0">floorListener</text><g><circle cx="140.0" cy="1260.0" r="20" /><text style="font-size:25;font-weight:bold;font-family:Arial" textLength="0" x="140.0" y="1280.0" /></g><g><rect fill="rgb(135,206,235)" height="100" rx="15" ry="15" stroke="black" stroke-width="2" width="180" x="180.0" y="1200.0" /><text style="font-size:25;font-weight:bold;font-family:Arial" textLength="140" x="200.0" y="1240.0">floorSelecting</text></g></g><g><rect fill="rgb(135,206,235)" height="840.0" rx="15" ry="15" stroke="black" stroke-width="2" width="1390.0" x="100.0" y="260.0" /><text style="font-size:25;font-family:Arial;font-style:oblique" textLength="130" x="660.0" y="300.0">&lt;&lt;parallel&gt;&gt;</text><text style="font-size:25;font-weight:bold;font-family:Arial" textLength="140" x="800.0" y="300.0">movingElevator</text><g><circle cx="140.0" cy="900.0" r="20" /><text style="font-size:25;font-weight:bold;font-family:Arial" textLength="0" x="140.0" y="920.0" /></g><g><rect fill="rgb(135,206,235)" height="100" rx="15" ry="15" stroke="black" stroke-width="2" width="130" x="180.0" y="980.0" /><text style="font-size:25;font-weight:bold;font-family:Arial" textLength="90" x="200.0" y="1020.0">doorsOpen</text></g><g><rect fill="rgb(135,206,235)" height="440.0" rx="15" ry="15" stroke="black" stroke-width="2" width="870.0" x="600.0" y="340.0" /><text style="font-size:25;font-weight:bold;font-family:Arial" textLength="60" x="1005.0" y="380.0">moving</text><g><rect fill="rgb(135,206,235)" height="140" rx="15" ry="15" stroke="black" stroke-width="2" width="330" x="870.0" y="440.0" /><text style="font-size:25;font-weight:bold;font-family:Arial" textLength="100" x="985.0" y="480.0">movingDown</text><text style="font-size:25;font-family:Arial;font-style:oblique" textLength="80" x="890.0" y="520.0">entry / </text><text style="font-size:25;font-family:Arial" textLength="210" x="980.0" y="520.0">current = current - 1</text></g><g><rect fill="rgb(135,206,235)" height="140" rx="15" ry="15" stroke="black" stroke-width="2" width="330" x="870.0" y="600.0" /><text style="font-size:25;font-weight:bold;font-family:Arial" textLength="80" x="995.0" y="640.0">movingUp</text><text style="font-size:25;font-family:Arial;font-style:oblique" textLength="80" x="890.0" y="680.0">entry / </text><text style="font-size:25;font-family:Arial" textLength="210" x="980.0" y="680.0">current = current + 1</text></g></g><g><rect fill="rgb(135,206,235)" height="100" rx="15" ry="15" stroke="black" stroke-width="2" width="150" x="600.0" y="840.0" /><text style="font-size:25;font-weight:bold;font-family:Arial" textLength="110" x="620.0" y="880.0">doorsClosed</text></g></g></g></g><line marker-end="url(#arrow)" stroke="black" stroke-width="1" x1="60.0" x2="80.0" y1="770.0" y2="770.0" /><line marker-end="url(#arrow)" stroke="black" stroke-width="1" x1="160.0" x2="180.0" y1="1260.0" y2="1260.0" /><polyline fill="none" marker-end="url(#arrow)" points="360.0,1250.0 380.0,1250.0 380.0,1320.0 270.0,1320.0 270.0,1300.0" stroke="black" stroke-width="1" /><polyline fill="none" marker-end="url(#arrow)" points="140.0,920.0 140.0,1030.0 180.0,1030.0" stroke="black" stroke-width="1" /><polyline fill="none" marker-end="url(#arrow)" points="266.6666666666667,980.0 266.6666666666667,890.0 600.0,890.0" stroke="black" stroke-width="1" /><polyline fill="none" marker-end="url(#arrow)" points="223.33333333333334,980.0 223.33333333333334,890.0 600.0,890.0" stroke="black" stroke-width="1" /><polyline fill="none" marker-end="url(#arrow)" points="1035.0,780.0 1035.0,1030.0 310.0,1030.0" stroke="black" stroke-width="1" /><polyline fill="none" marker-end="url(#arrow)" points="1035.0,440.0 1035.0,420.0 850.0,420.0 850.0,510.0 870.0,510.0" stroke="black" stroke-width="1" /><polyline fill="none" marker-end="url(#arrow)" points="1035.0,740.0 1035.0,760.0 1220.0,760.0 1220.0,670.0 1200.0,670.0" stroke="black" stroke-width="1" /><polyline fill="none" marker-end="url(#arrow)" points="700.0,840.0 700.0,670.0 870.0,670.0" stroke="black" stroke-width="1" /><polyline fill="none" marker-end="url(#arrow)" points="650.0,840.0 650.0,510.0 870.0,510.0" stroke="black" stroke-width="1" /><text style="font-size:25;font-family:Arial" textLength="0" x="70.0" y="792.5" /><text style="font-size:25;font-family:Arial" textLength="0" x="170.0" y="1282.5" /><text style="font-size:25;font-family:Arial" textLength="130" x="390.0" y="1280.0">floorSelected</text><text style="font-size:25;font-family:Arial" textLength="0" x="130.0" y="950.0" /><text style="font-size:25;font-family:Arial" textLength="240" x="276.6666666666667" y="920.0">[destination != current]</text><text style="font-size:25;font-family:Arial" textLength="270" x="233.33333333333334" y="872.5">[after(10) and current &gt; 0]</text><text style="font-size:25;font-family:Arial" textLength="240" x="785.0" y="810.0">[destination == current]</text><text style="font-size:25;font-family:Arial" textLength="230" x="610.0" y="450.0">[destination &lt; current]</text><text style="font-size:25;font-family:Arial" textLength="230" x="1230.0" y="700.0">[destination &gt; current]</text><text style="font-size:25;font-family:Arial" textLength="230" x="710.0" y="700.0">[destination &gt; current]</text><text style="font-size:25;font-family:Arial" textLength="440" x="200.0" y="540.0">[destination &lt; current and destination &gt;= 0]</text></svg>