<?xml version="1.0" encoding="utf-8" ?>
<svg baseProfile="full" height="1100.0" version="1.1" width="2110.0" xmlns="http://www.w3.org/2000/svg" xmlns:ev="http://www.w3.org/2001/xml-events" xmlns:xlink="http://www.w3.org/1999/xlink"><defs><marker id="arrow" markerHeight="20" markerWidth="30" orient="auto" refX="8" refY="3"><path d="M0,0 L0,6 L9,3 z" /></marker></defs><g><rect fill="rgb(135,206,235)" height="1100.0" rx="15" ry="15" stroke="black" stroke-width="2" width="2110.0" x="0" y="0" /><text style="font-size:25;font-weight:bold;font-family:Arial" textLength="80" x="1015.0" y="40">Elevator</text><text style="font-size:25;font-family:Arial" textLength="110" x="20" y="80">current = 0</text><text style="font-size:25;font-family:Arial" textLength="150" x="20" y="100">destination = 0</text><text style="font-size:25;font-family:Arial" textLength="170" x="20" y="120">doors_open = True</text><text style="font-size:25;font-family:Arial" textLength="0" x="20" y="140" /><g><circle cx="40.0" cy="630.0" r="20" /><text style="font-size:25;font-weight:bold;font-family:Arial" textLength="0" x="40.0" y="650.0" /></g><g><rect fill="rgb(135,206,235)" height="900.0" rx="15" ry="15" stroke="black" stroke-width="2" width="2010.0" x="80.0" y="180.0" /><text style="font-size:25;font-weight:bold;font-family:Arial" textLength="60" x="1055.0" y="220.0">active</text><g><rect fill="rgb(135,206,235)" height="220.0" rx="15" ry="15" stroke="black" stroke-width="2" width="1970.0" x="100.0" y="260.0" /><text style="font-size:25;font-family:Arial;font-style:oblique" textLength="130" x="955.0" y="300.0">&lt;&lt;parallel&gt;&gt;</text><text style="font-size:25;font-weight:bold;font-family:Arial" textLength="130" x="1095.0" y="300.0">floorListener</text><g><circle cx="140.0" cy="400.0" r="20" /><text style="font-size:25;font-weight:bold;font-family:Arial" textLength="0" x="140.0" y="420.0" /></g><g><rect fill="rgb(135,206,235)" height="100" rx="15" ry="15" stroke="black" stroke-width="2" width="180" x="180.0" y="340.0" /><text style="font-size:25;font-weight:bold;font-family:Arial" textLength="140" x="200.0" y="380.0">floorSelecting</text></g></g><g><rect fill="rgb(135,206,235)" height="560.0" rx="15" ry="15" stroke="black" stroke-width="2" width="1970.0" x="100.0" y="500.0" /><text style="font-size:25;font-family:Arial;font-style:oblique" textLength="130" x="950.0" y="540.0">&lt;&lt;parallel&gt;&gt;</text><text style="font-size:25;font-weight:bold;font-family:Arial" textLength="140" x="1090.0" y="540.0">movingElevator</text><g><circle cx="140.0" cy="830.0" r="20" /><text style="font-size:25;font-weight:bold;font-family:Arial" textLength="0" x="140.0" y="850.0" /></g><g><rect fill="rgb(135,206,235)" height="100" rx="15" ry="15" stroke="black" stroke-width="2" width="130" x="180.0" y="770.0" /><text style="font-size:25;font-weight:bold;font-family:Arial" textLength="90" x="200.0" y="810.0">doorsOpen</text></g><g><rect fill="rgb(135,206,235)" height="440.0" rx="15" ry="15" stroke="black" stroke-width="2" width="870.0" x="570.0" y="600.0" /><text style="font-size:25;font-weight:bold;font-family:Arial" textLength="60" x="975.0" y="640.0">moving</text><g><rect fill="rgb(135,206,235)" height="140" rx="15" ry="15" stroke="black" stroke-width="2" width="330" x="840.0" y="700.0" /><text style="font-size:25;font-weight:bold;font-family:Arial" textLength="100" x="955.0" y="740.0">movingDown</text><text style="font-size:25;font-family:Arial;font-style:oblique" textLength="80" x="860.0" y="780.0">entry / </text><text style="font-size:25;font-family:Arial" textLength="210" x="950.0" y="780.0">current = current - 1</text></g><g><rect fill="rgb(135,206,235)" height="140" rx="15" ry="15" stroke="black" stroke-width="2" width="330" x="840.0" y="860.0" /><text style="font-size:25;font-weight:bold;font-family:Arial" textLength="80" x="965.0" y="900.0">movingUp</text><text style="font-size:25;font-family:Arial;font-style:oblique" textLength="80" x="860.0" y="940.0">entry / </text><text style="font-size:25;font-family:Arial" textLength="210" x="950.0" y="940.0">current = current + 1</text></g></g><g><rect fill="rgb(135,206,235)" height="100" rx="15" ry="15" stroke="black" stroke-width="2" width="150" x="1900.0" y="760.0" /><text style="font-size:25;font-weight:bold;font-family:Arial" textLength="110" x="1920.0" y="800.0">doorsClosed</text></g></g></g></g><line marker-end="url(#arrow)" stroke="black" stroke-width="1" x1="60.0" x2="80.0" y1="630.0" y2="630.0" /><line marker-end="url(#arrow)" stroke="black" stroke-width="1" x1="160.0" x2="180.0" y1="400.0" y2="400.0" /><polyline fill="none" marker-end="url(#arrow)" points="360.0,390.0 380.0,390.0 380.0,460.0 270.0,460.0 270.0,440.0" stroke="black" stroke-width="1" /><line marker-end="url(#arrow)" stroke="black" stroke-width="1" x1="160.0" x2="180.0" y1="830.0" y2="830.0" /><polyline fill="none" marker-end="url(#arrow)" points="245.0,770.0 245.0,570.0 1975.0,570.0 1975.0,760.0" stroke="black" stroke-width="1" /><polyline fill="none" marker-end="url(#arrow)" points="245.0,870.0 245.0,1050.0 1975.0,1050.0 1975.0,860.0" stroke="black" stroke-width="1" /><line marker-end="url(#arrow)" stroke="black" stroke-width="1" x1="570.0" x2="310.0" y1="820.0" y2="820.0" /><polyline fill="none" marker-end="url(#arrow)" points="1005.0,700.0 1005.0,680.0 820.0,680.0 820.0,770.0 840.0,770.0" stroke="black" stroke-width="1" /><polyline fill="none" marker-end="url(#arrow)" points="1005.0,1000.0 1005.0,1020.0 1190.0,1020.0 1190.0,930.0 1170.0,930.0" stroke="black" stroke-width="1" /><line marker-end="url(#arrow)" stroke="black" stroke-width="1" x1="1900.0" x2="1170.0" y1="860.0" y2="860.0" /><line marker-end="url(#arrow)" stroke="black" stroke-width="1" x1="1900.0" x2="1170.0" y1="800.0" y2="800.0" /><text style="font-size:25;font-family:Arial" textLength="0" x="70.0" y="652.5" /><text style="font-size:25;font-family:Arial" textLength="0" x="170.0" y="422.5" /><text style="font-size:25;font-family:Arial" textLength="130" x="390.0" y="420.0">floorSelected</text><text style="font-size:25;font-family:Arial" textLength="270" x="390.0" y="440.0">/ destination = event.floor</text><text style="font-size:25;font-family:Arial" textLength="0" x="170.0" y="852.5" /><text style="font-size:25;font-family:Arial" textLength="240" x="255.0" y="600.0">[destination != current]</text><text style="font-size:25;font-family:Arial" textLength="200" x="255.0" y="620.0">/ doors_open = False</text><text style="font-size:25;font-family:Arial" textLength="370" x="1595.0" y="910.0">/ destination = 0
doors_open = False
</text><text style="font-size:25;font-family:Arial" textLength="270" x="1595.0" y="890.0">[after(10) and current &gt; 0]</text><text style="font-size:25;font-family:Arial" textLength="190" x="320.0" y="862.5">/ doors_open = True</text><text style="font-size:25;font-family:Arial" textLength="240" x="320.0" y="842.5">[destination == current]</text><text style="font-size:25;font-family:Arial" textLength="230" x="580.0" y="710.0">[destination &lt; current]</text><text style="font-size:25;font-family:Arial" textLength="230" x="1200.0" y="960.0">[destination &gt; current]</text><text style="font-size:25;font-family:Arial" textLength="230" x="1180.0" y="882.5">[destination &gt; current]</text><text style="font-size:25;font-family:Arial" textLength="440" x="1180.0" y="822.5">[destination &lt; current and destination &gt;= 0]</text></svg>